<?xml version="1.0" encoding="UTF-8" standalone="no"?>
<svg
   xmlns:dc="http://purl.org/dc/elements/1.1/"
   xmlns:cc="http://creativecommons.org/ns#"
   xmlns:rdf="http://www.w3.org/1999/02/22-rdf-syntax-ns#"
   xmlns:svg="http://www.w3.org/2000/svg"
   xmlns="http://www.w3.org/2000/svg"
   xmlns:sodipodi="http://sodipodi.sourceforge.net/DTD/sodipodi-0.dtd"
   xmlns:inkscape="http://www.inkscape.org/namespaces/inkscape"
   width="500mm"
   height="500mm"
   viewBox="0 0 500 500"
   version="1.1"
   id="svg8"
   sodipodi:docname="svgkiwi.svg"
   inkscape:version="1.0.1 (3bc2e813f5, 2020-09-07)">
  <defs
     id="defs2" />
  <sodipodi:namedview
     id="base"
     pagecolor="#ffffff"
     bordercolor="#666666"
     borderopacity="1.0"
     inkscape:pageopacity="0.0"
     inkscape:pageshadow="2"
     inkscape:zoom="0.35"
     inkscape:cx="383.0289"
     inkscape:cy="1045.9289"
     inkscape:document-units="mm"
     inkscape:current-layer="layer1"
     inkscape:document-rotation="0"
     showgrid="false"
     inkscape:window-width="1920"
     inkscape:window-height="1017"
     inkscape:window-x="-8"
     inkscape:window-y="-8"
     inkscape:window-maximized="1"
     inkscape:snap-page="false"
     inkscape:snap-grids="true"
     inkscape:snap-center="false"
     inkscape:snap-object-midpoints="true" />
  <metadata
     id="metadata5">
    <rdf:RDF>
      <cc:Work
         rdf:about="">
        <dc:format>image/svg+xml</dc:format>
        <dc:type
           rdf:resource="http://purl.org/dc/dcmitype/StillImage" />
        <dc:title></dc:title>
      </cc:Work>
    </rdf:RDF>
  </metadata>
  <g
     inkscape:label="Layer 1"
     inkscape:groupmode="layer"
     id="layer1">
    <rect
       style="fill:#b3d5ff;fill-opacity:1;fill-rule:evenodd;stroke-width:0.264201;stroke-miterlimit:4;stroke-dasharray:none;paint-order:stroke markers fill"
       id="rect1941"
       width="498.92862"
       height="500.44049"
       x="0.75595289"
       y="3.3492134e-07"
       ry="83.154762" />
    <path
       style="fill:#4f739e;fill-opacity:1;stroke:#8cb7eb;stroke-width:10.5;stroke-miterlimit:4;stroke-dasharray:none;stroke-dashoffset:0;stroke-opacity:1;paint-order:stroke markers fill"
       id="path2804"
       d="m 169.00937,77.582104 c -4.30899,6.697658 -9.14084,13.116421 -13.10416,20.00517 -3.97028,6.900856 -7.65874,14.599166 -11.1805,21.665916 -5.96504,12.16661 -11.52396,24.5163 -16.0349,37.21934 -5.35957,15.09279 -9.83465,30.48376 -14.44278,45.78308 -5.63139,18.26573 -10.24081,36.80182 -13.14064,55.61767 -1.864836,12.1003 -2.242756,17.52584 -3.460246,29.70406 -2.53296,26.02362 -2.60696,52.16751 -1.89306,78.26518 0.42749,17.35588 1.56514,34.68565 2.42556,52.0251 0.0295,1.61914 0.30181,3.25019 0.0884,4.8574 -0.5102,3.84292 -9.22052,12.08173 8.833826,-3.15698 0.6509,-0.54942 -1.79445,0.0309 -2.6284,-0.22975 -2.80317,-0.87616 -4.866926,-2.69619 -7.143346,-4.34034 -11.46186,-10.08164 -19.0235,-23.11817 -26.291822,-35.94247 -9.030374,-17.58812 -16.979496,-35.7487 -23.179788,-54.37602 -1.43694,-4.31695 -2.670202,-8.68999 -4.005305,-13.03498 -5.18711,-18.81119 -8.974808,-38.01836 -10.611487,-57.39184 -0.28184,-3.33616 -0.414131,-6.68175 -0.621196,-10.02262 -0.731506,-15.86349 0.655505,-31.73974 3.577897,-47.3707 0.567416,-3.03494 1.257444,-6.04904 1.886161,-9.07356 3.859805,-17.38309 9.138238,-34.45489 15.079007,-51.31384 2.923275,-7.90246 5.725827,-15.87794 9.619723,-23.42436 0.286738,-0.429 0.49688,-0.91127 0.860211,-1.28703 0.235845,-0.24393 1.198058,-0.69451 0.894194,-0.52746 -3.947049,2.16992 -8.044741,4.12316 -11.824158,6.53628 -0.265483,0.16951 0.587106,0.27837 0.801614,0.5015 1.209426,1.25806 1.818451,2.63861 2.651453,4.13405 5.692803,12.57058 9.182546,25.85784 12.663976,39.06501 5.05137,22.21129 12.42045,43.85978 20.6655,65.20537 7.8946,20.44444 18.555866,39.7693 29.262246,59.02887 9.22553,15.95025 18.8612,31.777 29.79072,46.79085 1.9014,2.61197 3.91401,5.15278 5.87103,7.72915 11.3412,12.81031 23.279,25.29162 36.63719,36.34171 2.0868,1.72622 4.26764,3.35203 6.40146,5.02805 7.725,5.84196 16.23684,10.70055 24.8886,15.25557 6.6238,3.75573 4.99465,3.06201 15.40874,-6.25478 0.54581,-0.4883 -0.64756,-1.27225 -0.95808,-1.91402 -0.4044,-0.83581 -0.79103,-1.67894 -1.18655,-2.51841 -2.81732,-6.4807 -6.17154,-12.80214 -8.41756,-19.48737 -0.58373,-1.73746 -1.034,-3.51113 -1.55101,-5.26672 -3.45659,-12.83268 -4.26522,-26.04776 -4.25526,-39.219 0.16337,-13.95999 2.17861,-27.78299 5.01187,-41.46659 2.41637,-10.6818 5.6142,-21.20012 9.23454,-31.58048 1.02607,-2.65521 1.95609,-5.37502 3.37024,-7.88481 0.21919,-0.389 0.42343,-0.79799 0.74177,-1.12276 0.1528,-0.15592 0.81706,-0.36778 0.61862,-0.26519 -4.17688,2.15928 -8.37039,4.29077 -12.55557,6.43615 0.16225,5.36392 0.70424,10.72097 1.45783,16.04373 2.31891,12.41335 6.43024,24.45413 10.40774,36.47473 3.21037,9.25772 6.40472,18.54928 10.59094,27.47747 2.64671,5.64476 3.64857,7.2713 6.64256,12.73402 4.80467,8.60827 10.35929,16.86146 16.88238,24.44364 4.24969,4.93971 5.54965,6.0391 10.21522,10.6513 4.59301,4.44409 9.34262,8.74932 14.29784,12.84575 1.96275,1.6226 4.26698,3.68241 6.75454,4.71851 0.87429,0.36415 1.85793,0.43696 2.78691,0.65545 15.74576,-3.23277 19.79793,-11.05568 24.90341,-22.59437 3.38334,-8.02635 6.95983,-15.97976 10.33414,-24.00929 3.49057,-8.40248 7.27067,-16.69921 11.05058,-24.99254 2.51798,-6.30231 6.04685,-12.19455 8.78195,-18.40576 0.68019,-1.18044 0.96176,-2.52136 1.75986,-3.64689 0.14325,-0.20198 0.29267,-0.41462 0.5071,-0.55202 0.13102,-0.084 0.60932,-0.14779 0.47096,-0.0746 -4.13336,2.18635 -8.32014,4.28461 -12.4802,6.42692 2.21524,3.7643 3.54032,8.02621 5.02398,12.08391 3.122,8.62513 6.12304,17.28319 8.98819,25.98472 3.1211,9.00376 5.49329,18.19719 7.91725,27.37572 1.10173,4.70802 2.27738,9.39911 3.44861,14.09252 0.63454,1.76213 0.67595,4.81502 2.13263,6.23126 0.30376,0.2953 0.72019,0.46912 1.08031,0.70366 0.53358,0.0705 1.06206,0.22574 1.60082,0.2114 3.31752,-0.0883 9.47385,-2.95672 12.56135,-4.27195 10.25145,-4.62541 20.13002,-9.99309 28.83567,-16.83109 7.55107,-6.28719 14.34964,-13.30574 20.64741,-20.67202 7.30345,-8.57401 12.66747,-18.32156 17.49125,-28.23806 4.95445,-10.47889 8.6664,-21.41385 12.01212,-32.41212 1.51484,-5.12274 2.77304,-10.3091 4.00486,-15.49564 0.20457,-0.86137 1.89339,-8.39029 2.22772,-9.4174 0.26647,-0.81868 0.75191,-1.56172 1.12785,-2.34256 0,0 -12.87316,5.57397 -12.87316,5.57397 v 0 c -2.62869,8.94535 -3.90947,18.20962 -6.78555,27.10514 -3.32539,10.9588 -7.08298,21.82385 -12.09034,32.23522 -4.86161,9.88231 -10.3731,19.50703 -17.754,28.00094 -6.38469,7.34289 -13.24698,14.37019 -20.98412,20.51623 -3.01162,2.25869 -2.89122,2.24773 -5.98707,4.26807 -0.91912,0.59982 -3.78722,2.23621 -2.78997,1.75566 3.17796,-1.53153 6.21935,-3.2958 9.34628,-4.91525 0.90034,-0.46632 -1.7599,0.99899 -2.66609,1.45546 -0.88305,0.4448 -1.79888,0.83117 -2.69831,1.24674 -4.22797,1.87033 -8.5588,3.78541 -13.13162,4.785 -0.2111,-0.006 -0.45859,0.0914 -0.63332,-0.0187 -1.05997,-0.66781 -1.63483,-4.68473 -2.05993,-5.79036 -1.26084,-4.64562 -2.5062,-9.29346 -3.80006,-13.9314 -2.56208,-9.15084 -5.21033,-18.2791 -8.12978,-27.33858 -2.84973,-8.73394 -5.8335,-17.42658 -8.76426,-26.13743 -1.04613,-2.96823 -2.01146,-5.96144 -3.12367,-8.90909 -0.0737,-0.19504 -1.13057,-2.93773 -1.33945,-3.34977 -0.18305,-0.36117 -0.43716,-0.68752 -0.65577,-1.03125 -13.87377,6.37954 -11.99605,2.69884 -15.43438,10.89828 -2.59258,6.11527 -5.73129,12.02371 -8.2751,18.15987 -3.82559,8.31549 -7.65912,16.63067 -11.14682,25.07472 -3.38911,8.01947 -6.89502,15.9951 -10.36199,23.9858 -1.67546,3.61657 -3.31214,7.31763 -5.80176,10.54151 -0.70514,0.91307 -3.49527,2.90312 -2.33537,2.58082 1.53052,-0.42529 15.14256,-7.38084 7.46923,-3.47463 -0.87914,-0.0661 -1.79661,0.049 -2.63746,-0.19806 -2.5534,-0.75031 -5.0011,-2.77319 -6.94586,-4.28206 -5.08255,-3.94346 -9.85656,-8.22232 -14.49761,-12.60378 -4.30888,-4.25498 -6.22163,-5.98124 -10.16881,-10.5259 -6.51849,-7.50521 -11.95986,-15.7231 -16.71558,-24.2804 -2.95857,-5.36371 -4.01746,-7.0801 -6.62324,-12.62723 -4.17895,-8.89609 -7.40821,-18.13286 -10.50132,-27.39197 -3.92315,-11.99319 -7.90944,-24.04169 -9.88751,-36.47105 -0.38963,-3.8056 -0.54087,-4.72114 -0.71494,-8.3411 -0.11483,-2.3889 0.2122,-5.34501 -0.21507,-7.68195 -0.0879,-0.48075 -0.30095,-0.93439 -0.45143,-1.40159 -4.4007,2.01473 -8.86457,3.91486 -13.20213,6.04418 -0.21172,0.10401 -0.22177,0.39412 -0.32317,0.59546 -0.19479,0.38674 -0.39016,0.7736 -0.56522,1.16838 -1.13974,2.57009 -2.03537,5.22653 -2.9812,7.86065 -3.41467,10.34492 -6.18464,20.87858 -8.60335,31.45905 -2.90337,13.74461 -4.80538,27.63754 -4.88115,41.66982 10e-4,5.68716 -0.0874,8.93808 0.26679,14.61122 0.52607,8.42736 1.85589,16.81113 3.84727,25.04421 0.50355,1.79858 0.93818,3.61501 1.51065,5.39577 2.16999,6.75004 5.4976,13.12814 8.08211,19.7391 0.35413,0.8594 0.72103,1.71434 1.06241,2.57815 0.23954,0.60613 0.0236,2.04542 0.68004,1.83115 4.47333,-1.46022 8.39378,-4.0963 12.5817,-6.16012 0.13142,-0.0647 -0.26499,0.18996 -0.41078,0.16226 -0.578,-0.11001 -2.70302,-1.21959 -2.94341,-1.33828 -8.90949,-4.23633 -17.68917,-8.78913 -25.58297,-14.54724 -2.17267,-1.62956 -4.39449,-3.2043 -6.51802,-4.88871 -13.55221,-10.74977 -25.61017,-23.07658 -36.61527,-36.0604 -1.98358,-2.54344 -4.02682,-5.04775 -5.95076,-7.63031 -11.08327,-14.87737 -20.69524,-30.66822 -30.00371,-46.53648 -10.67678,-19.21378 -20.68223,-38.76552 -29.14958,-58.91772 -3.755536,-9.49533 -5.093916,-12.52759 -8.377806,-22.28593 -4.75231,-14.12189 -8.41425,-28.51739 -11.9615,-42.93145 -3.32828,-13.4308 -6.33535,-27.00139 -11.616718,-39.92198 -0.220054,-0.4366 -3.184258,-6.29468 -3.932216,-6.03456 -8.997298,3.12889 -11.882253,3.18626 -14.738726,8.6709 -3.419932,7.50177 -5.804332,15.36423 -8.501548,23.1039 -5.674918,16.92225 -11.098369,33.95578 -14.810859,51.35673 -0.6133,3.03382 -1.286293,6.05779 -1.839897,9.10148 -2.855459,15.69924 -4.230912,31.62384 -3.344352,47.54351 0.229292,3.34884 0.37991,6.7031 0.687882,10.04652 1.784343,19.37113 6.062283,38.49212 11.265167,57.29544 1.33131,4.36389 2.57984,8.75024 3.99393,13.09167 6.109746,18.75762 13.678876,37.11988 22.659395,54.85441 7.040452,13.10606 14.519432,26.33763 25.717382,36.86014 2.65633,2.08587 4.14629,3.52385 7.21855,4.97915 1.00451,0.47581 2.13689,1.51522 3.17053,1.0965 8.027046,-3.2518 14.274476,-4.10039 14.506646,-11.00983 0.0535,-1.59196 -0.2264,-3.17856 -0.3396,-4.76786 -1.48177,-17.16886 -2.57702,-34.36468 -3.2673,-51.57711 -0.92696,-25.95603 -1.15092,-51.94794 1.33533,-77.84837 1.29874,-12.72078 1.55358,-17.03973 3.58591,-29.67395 3.01006,-18.71227 7.70118,-37.14496 12.96523,-55.40915 3.02184,-10.07964 6.07861,-20.56095 9.42003,-30.5539 5.98824,-17.90856 13.06378,-35.49344 21.62742,-52.48695 2.04908,-3.93032 4.01039,-7.90105 6.14722,-11.79094 5.85735,-10.662758 12.81244,-20.71943 20.1563,-30.543168 0,0 -13.12397,5.350954 -13.12397,5.350954 z" />
    <ellipse
       style="fill:#4f739e;fill-opacity:1;stroke:#8cb7eb;stroke-width:10.5;stroke-miterlimit:4;stroke-dasharray:none;stroke-dashoffset:0;stroke-opacity:1;paint-order:stroke markers fill"
       id="path2808"
       cx="234.72321"
       cy="211.66666"
       rx="9.4297867"
       ry="10.563715" />
    <ellipse
       style="fill:#4f739e;fill-opacity:1;stroke:#8cb7eb;stroke-width:10.5;stroke-miterlimit:4;stroke-dasharray:none;stroke-dashoffset:0;stroke-opacity:1;paint-order:stroke markers fill"
       id="path2808-4"
       cx="476.25"
       cy="226.78571"
       rx="9.4297876"
       ry="10.563716" />
  </g>
</svg>
